<svg width="324" height="324" viewBox="0 0 324 324" fill="none" xmlns="http://www.w3.org/2000/svg">
<rect x="0.5" y="0.5" width="323" height="323" rx="19.5" fill="white" stroke="white"/>
<g opacity="0.75">
<path fill-rule="evenodd" clip-rule="evenodd" d="M117.553 24.9893V113.245H28.4362V114.245H117.553V202.862H28.4362V203.862H117.553V292.117H118.553V203.862H207.17V292.117H208.17V203.862H295.564V202.862H208.17V114.245H295.564V113.245H208.17V24.9893H207.17V113.245H118.553V24.9893H117.553ZM207.17 202.862V114.245H118.553V202.862H207.17Z" fill="#C1C1C1"/>
<path d="M117.553 113.245V113.745H118.053V113.245H117.553ZM117.553 24.9893V24.4893H117.053V24.9893H117.553ZM28.4362 113.245V112.745H27.9362V113.245H28.4362ZM28.4362 114.245H27.9362V114.745H28.4362V114.245ZM117.553 114.245H118.053V113.745H117.553V114.245ZM117.553 202.862V203.362H118.053V202.862H117.553ZM28.4362 202.862V202.362H27.9362V202.862H28.4362ZM28.4362 203.862H27.9362V204.362H28.4362V203.862ZM117.553 203.862H118.053V203.362H117.553V203.862ZM117.553 292.117H117.053V292.617H117.553V292.117ZM118.553 292.117V292.617H119.053V292.117H118.553ZM118.553 203.862V203.362H118.053V203.862H118.553ZM207.17 203.862H207.67V203.362H207.17V203.862ZM207.17 292.117H206.67V292.617H207.17V292.117ZM208.17 292.117V292.617H208.67V292.117H208.17ZM208.17 203.862V203.362H207.67V203.862H208.17ZM295.564 203.862V204.362H296.064V203.862H295.564ZM295.564 202.862H296.064V202.362H295.564V202.862ZM208.17 202.862H207.67V203.362H208.17V202.862ZM208.17 114.245V113.745H207.67V114.245H208.17ZM295.564 114.245V114.745H296.064V114.245H295.564ZM295.564 113.245H296.064V112.745H295.564V113.245ZM208.17 113.245H207.67V113.745H208.17V113.245ZM208.17 24.9893H208.67V24.4893H208.17V24.9893ZM207.17 24.9893V24.4893H206.67V24.9893H207.17ZM207.17 113.245V113.745H207.67V113.245H207.17ZM118.553 113.245H118.053V113.745H118.553V113.245ZM118.553 24.9893H119.053V24.4893H118.553V24.9893ZM207.17 202.862V203.362H207.67V202.862H207.17ZM207.17 114.245H207.67V113.745H207.17V114.245ZM118.553 114.245V113.745H118.053V114.245H118.553ZM118.553 202.862H118.053V203.362H118.553V202.862ZM118.053 113.245V24.9893H117.053V113.245H118.053ZM28.4362 113.745H117.553V112.745H28.4362V113.745ZM28.9362 114.245V113.245H27.9362V114.245H28.9362ZM117.553 113.745H28.4362V114.745H117.553V113.745ZM118.053 202.862V114.245H117.053V202.862H118.053ZM28.4362 203.362H117.553V202.362H28.4362V203.362ZM28.9362 203.862V202.862H27.9362V203.862H28.9362ZM117.553 203.362H28.4362V204.362H117.553V203.362ZM118.053 292.117V203.862H117.053V292.117H118.053ZM118.553 291.617H117.553V292.617H118.553V291.617ZM118.053 203.862V292.117H119.053V203.862H118.053ZM207.17 203.362H118.553V204.362H207.17V203.362ZM207.67 292.117V203.862H206.67V292.117H207.67ZM208.17 291.617H207.17V292.617H208.17V291.617ZM207.67 203.862V292.117H208.67V203.862H207.67ZM295.564 203.362H208.17V204.362H295.564V203.362ZM295.064 202.862V203.862H296.064V202.862H295.064ZM208.17 203.362H295.564V202.362H208.17V203.362ZM207.67 114.245V202.862H208.67V114.245H207.67ZM295.564 113.745H208.17V114.745H295.564V113.745ZM295.064 113.245V114.245H296.064V113.245H295.064ZM208.17 113.745H295.564V112.745H208.17V113.745ZM207.67 24.9893V113.245H208.67V24.9893H207.67ZM207.17 25.4893H208.17V24.4893H207.17V25.4893ZM207.67 113.245V24.9893H206.67V113.245H207.67ZM118.553 113.745H207.17V112.745H118.553V113.745ZM118.053 24.9893V113.245H119.053V24.9893H118.053ZM117.553 25.4893H118.553V24.4893H117.553V25.4893ZM207.67 202.862V114.245H206.67V202.862H207.67ZM207.17 113.745H118.553V114.745H207.17V113.745ZM118.053 114.245V202.862H119.053V114.245H118.053ZM118.553 203.362H207.17V202.362H118.553V203.362Z" fill="#C1C1C1"/>
</g>
<path opacity="0.8" d="M49 134L73 158M97 182L73 158M73 158L49 182M73 158L97 134" stroke="#F54D62" stroke-width="19.1321" stroke-linecap="round" stroke-linejoin="bevel"/>
<circle opacity="0.8" cx="251" cy="247" r="24" stroke="#87E43A" stroke-width="19.1321" stroke-linecap="round" stroke-linejoin="bevel"/>
</svg>
